<!-- Generated by IcoMoon.io -->
<svg version="1.1" xmlns="http://www.w3.org/2000/svg" width="768" height="768" viewBox="0 0 768 768">
<title></title>
<g id="icomoon-ignore">
</g>
<path d="M384 72c-83.339 0-161.688 32.454-220.617 91.383s-91.383 137.279-91.383 220.617c0 83.338 32.454 161.688 91.383 220.617s137.279 91.383 220.617 91.383c83.338 0 161.688-32.454 220.617-91.383s91.383-137.279 91.383-220.617c0-83.339-32.454-161.688-91.383-220.617s-137.279-91.383-220.617-91.383zM384 0v0c212.077 0 384 171.922 384 384s-171.923 384-384 384c-212.077 0-384-171.923-384-384s171.922-384 384-384zM336 528h96v96h-96zM336 144h96v288h-96z"></path>
</svg>
